<svg xmlns="http://www.w3.org/2000/svg" viewBox="0 0 1024.00 1024.00" width="1024" height="1024"><title>zephyr</title><defs><radialGradient id="g1" cx="0" cy="0" r="0.85" gradientUnits="objectBoundingBox"><stop offset="0" stop-color="#3CDDCF" stop-opacity="0.42"/><stop offset="1" stop-color="#3CDDCF" stop-opacity="0"/></radialGradient><radialGradient id="g2" cx="1" cy="1" r="0.85" gradientUnits="objectBoundingBox"><stop offset="0" stop-color="#9A3CDD" stop-opacity="0.42"/><stop offset="1" stop-color="#9A3CDD" stop-opacity="0"/></radialGradient></defs><rect width="1024" height="1024" fill="#121212"/><rect width="1024" height="1024" fill="url(#g1)"/><rect width="1024" height="1024" fill="url(#g2)"/><g transform="translate(275.484,275.484) scale(5.39491)"><path d="M18.320,81.002A53.398,53.398 0 0,0 37.161,62.161" fill="none" stroke="#FFFFFF" stroke-width="6.0" stroke-linecap="round"/><path d="M50.520,25.520A53.398,53.398 0 0,1 69.361,6.679" fill="none" stroke="#FFFFFF" stroke-width="6.0" stroke-linecap="round"/><path d="M-15.000,87.681a15.0,15.0 0 1,0 30.0,0a15.0,15.0 0 1,0 -30.0,0zM-10.000,87.681a10.0,10.0 0 1,1 20.0,0a10.0,10.0 0 1,1 -20.0,0z" fill="#3CDDCF" fill-opacity="0.57" fill-rule="evenodd"/><circle cx="0.000" cy="87.681" r="10.0" fill="#3CDDCF"/><path d="M28.841,43.841a15.0,15.0 0 1,0 30.0,0a15.0,15.0 0 1,0 -30.0,0zM33.841,43.841a10.0,10.0 0 1,1 20.0,0a10.0,10.0 0 1,1 -20.0,0z" fill="#3C64DD" fill-opacity="0.57" fill-rule="evenodd"/><circle cx="43.841" cy="43.841" r="10.0" fill="#3C64DD"/><path d="M72.681,0.000a15.0,15.0 0 1,0 30.0,0a15.0,15.0 0 1,0 -30.0,0zM77.681,0.000a10.0,10.0 0 1,1 20.0,0a10.0,10.0 0 1,1 -20.0,0z" fill="#9A3CDD" fill-opacity="0.57" fill-rule="evenodd"/><circle cx="87.681" cy="0.000" r="10.0" fill="#9A3CDD"/></g></svg>
